# xmcd
#
# Track frame offsets: 
#        150
#        18297
#        33501
#        52879
#        63823
#        83087
#        104506
#        121000
#        138771
#        160175
#        174058
#        191274
#
# Disc length: 2836 seconds
#
# Revision: 0
# Processed by: cddbd v1.5.2PL0 Copyright (c) Steve Scherf et al.
# Submitted via: ExactAudioCopy v0.99pb4
#
DISCID=820b120c
DTITLE=Moonband - the significance of denavigation
DYEAR=2011
DGENRE=Alternative
TTITLE0=Photosynthesis
TTITLE1=Midsummer field
TTITLE2=The temptation of superman
TTITLE3=Joänne
TTITLE4=King of pines
TTITLE5=In your arms
TTITLE6=Rock me on
TTITLE7=Number seven
TTITLE8=Go loose
TTITLE9=World aflame
TTITLE10=War sings a song
TTITLE11=Endless tune
EXTD=
EXTT0=
EXTT1=
EXTT2=
EXTT3=
EXTT4=
EXTT5=
EXTT6=
EXTT7=
EXTT8=
EXTT9=
EXTT10=
EXTT11=
PLAYORDER=
